# xmcd CD database file
#
# Track frame offsets:
#	183
#	13158
#	23358
#	36933
#	53283
#	65433
#	70683
#	74958
#	93108
#	97083
#	108258
#	115983
#	122283
#	126183
#	133158
#	136683
#	145308
#	151383
#	157758
#	162708
#	171408
#	182808
#	190158
#	197433
#	204258
#
# Disc length: 2762 seconds
#
# Revision: 0
# Processed by: cddbd v1.5.1PL0 Copyright (c) Steve Scherf et al.
# Submitted via: CDex 1.51
#
DISCID=590ac819
DTITLE=Sonoton Authentic Series - SAS 025 - Authentic  Scandinavia VOL. 1 - Denmark
DYEAR=1989
DGENRE=Contentum
TTITLE0=Old Copenhagen
TTITLE1=Ebbe Skammelson
TTITLE2=The Danish Song
TTITLE3=Tivoli Section Part I
TTITLE4=Tivoli Section Part II
TTITLE5=Dreamvisions
TTITLE6=Amelie waltz
TTITLE7=On a saturday evening
TTITLE8=The skylarknest
TTITLE9=In Denmark  I was born
TTITLE10=The tufted chicken
TTITLE11=Jump seven 1
TTITLE12=Jump seven 2
TTITLE13=Forward 1
TTITLE14=Forward 2
TTITLE15=Little man in trouble 1
TTITLE16=Little man in trouble 2
TTITLE17=Heidilit 1
TTITLE18=Heidilit 2
TTITLE19=Danish counterdance
TTITLE20=Danish rheinländer
TTITLE21=Hopsa
TTITLE22=Double Quadrille
TTITLE23=Danish waltz 1
TTITLE24=Danish waltz 2
EXTD=YEAR: 1989
EXTT0=
EXTT1=
EXTT2=
EXTT3=
EXTT4=
EXTT5=
EXTT6=
EXTT7=
EXTT8=
EXTT9=
EXTT10=
EXTT11=
EXTT12=
EXTT13=
EXTT14=
EXTT15=
EXTT16=
EXTT17=
EXTT18=
EXTT19=
EXTT20=
EXTT21=
EXTT22=
EXTT23=
EXTT24=
PLAYORDER=
